<svg width="24" height="24" viewBox="0 0 24 24" fill="none" xmlns="http://www.w3.org/2000/svg">
<path d="M20 17V18C20.4045 18 20.7691 17.7564 20.9239 17.3827C21.0787 17.009 20.9931 16.5789 20.7071 16.2929L20 17ZM4 17L3.29289 16.2929C3.0069 16.5789 2.92134 17.009 3.07612 17.3827C3.2309 17.7564 3.59554 18 4 18V17ZM5.40493 15.5951L6.11204 16.3022H6.11204L5.40493 15.5951ZM10 5.34142L10.3332 6.28426C10.7328 6.14302 11 5.76523 11 5.34142H10ZM14 5.34142H13C13 5.76523 13.2672 6.14302 13.6668 6.28426L14 5.34142ZM4.70711 17.7071L6.11204 16.3022L4.69783 14.888L3.29289 16.2929L4.70711 17.7071ZM7 14.1585V11H5V14.1585H7ZM17 11V14.1585H19V11H17ZM17.888 16.3022L19.2929 17.7071L20.7071 16.2929L19.3022 14.888L17.888 16.3022ZM6.11204 16.3022C6.68059 15.7336 7 14.9625 7 14.1585H5C5 14.4321 4.8913 14.6945 4.69783 14.888L6.11204 16.3022ZM17 14.1585C17 14.9625 17.3194 15.7336 17.888 16.3022L19.3022 14.888C19.1087 14.6945 19 14.4321 19 14.1585H17ZM9.66675 4.39858C6.94932 5.35905 5 7.9506 5 11H7C7 8.82453 8.38991 6.97113 10.3332 6.28426L9.66675 4.39858ZM13.6668 6.28426C15.6101 6.97113 17 8.82453 17 11H19C19 7.9506 17.0507 5.35905 14.3332 4.39858L13.6668 6.28426ZM15 5.34142V5H13V5.34142H15ZM9 5V5.34142H11V5H9ZM12 2C10.3431 2 9 3.34315 9 5H11C11 4.44772 11.4477 4 12 4V2ZM15 5C15 3.34315 13.6569 2 12 2V4C12.5523 4 13 4.44772 13 5H15ZM14 18C14 19.1046 13.1046 20 12 20V22C14.2091 22 16 20.2091 16 18H14ZM12 20C10.8954 20 10 19.1046 10 18H8C8 20.2091 9.79086 22 12 22V20ZM20 16H15V18H20V16ZM16 18V17H14V18H16ZM15 16H9V18H15V16ZM9 16H4V18H9V16ZM10 18V17H8V18H10Z" fill="#111827"/>
</svg>
