<svg width="24" height="24" viewBox="0 0 24 24" fill="none" xmlns="http://www.w3.org/2000/svg">
<path d="M15.5937 4.8906L14.7617 5.4453L15.5937 4.8906ZM8.40627 4.8906L9.23832 5.4453V5.4453L8.40627 4.8906ZM16.4063 6.1094L17.2383 5.5547L16.4063 6.1094ZM7.59373 6.1094L6.76168 5.5547L6.76168 5.5547L7.59373 6.1094ZM20 9V18H22V9H20ZM19 19H5V21H19V19ZM4 18V9H2V18H4ZM5 8H5.92963V6H5V8ZM18.0704 8H19V6H18.0704V8ZM8.42578 6.6641L9.23832 5.4453L7.57422 4.3359L6.76168 5.5547L8.42578 6.6641ZM10.0704 5H13.9296V3H10.0704V5ZM14.7617 5.4453L15.5742 6.6641L17.2383 5.5547L16.4258 4.3359L14.7617 5.4453ZM13.9296 5C14.264 5 14.5762 5.1671 14.7617 5.4453L16.4258 4.3359C15.8694 3.5013 14.9327 3 13.9296 3V5ZM9.23832 5.4453C9.42378 5.1671 9.73601 5 10.0704 5V3C9.06731 3 8.13061 3.5013 7.57422 4.3359L9.23832 5.4453ZM18.0704 6C17.736 6 17.4238 5.8329 17.2383 5.5547L15.5742 6.6641C16.1306 7.4987 17.0673 8 18.0704 8V6ZM5.92963 8C6.93269 8 7.86939 7.4987 8.42578 6.6641L6.76168 5.5547C6.57622 5.8329 6.26399 6 5.92963 6V8ZM5 19C4.44772 19 4 18.5523 4 18H2C2 19.6569 3.34315 21 5 21V19ZM20 18C20 18.5523 19.5523 19 19 19V21C20.6569 21 22 19.6569 22 18H20ZM22 9C22 7.34315 20.6569 6 19 6V8C19.5523 8 20 8.44772 20 9H22ZM4 9C4 8.44772 4.44772 8 5 8V6C3.34315 6 2 7.34315 2 9H4ZM14 13C14 14.1046 13.1046 15 12 15V17C14.2091 17 16 15.2091 16 13H14ZM12 15C10.8954 15 10 14.1046 10 13H8C8 15.2091 9.79086 17 12 17V15ZM10 13C10 11.8954 10.8954 11 12 11V9C9.79086 9 8 10.7909 8 13H10ZM12 11C13.1046 11 14 11.8954 14 13H16C16 10.7909 14.2091 9 12 9V11Z" fill="#111827"/>
</svg>
