<svg width="25" height="25" viewBox="0 0 25 25" fill="none" xmlns="http://www.w3.org/2000/svg">
<path d="M15.7115 9.41504C17.4456 9.41504 19.1087 10.1043 20.3348 11.3313C21.561 12.5582 22.2499 14.2223 22.2499 15.9574C22.2541 17.2453 21.8736 18.5049 21.1576 19.575L22.2499 22.4998L18.573 21.8379C17.6887 22.2693 16.7186 22.4956 15.7347 22.4998C14.751 22.5039 13.7789 22.2858 12.891 21.8619C12.0031 21.4379 11.2223 20.8188 10.6067 20.0509C9.99116 19.2831 9.5567 18.3861 9.33574 17.4268C9.11479 16.4676 9.11301 15.4708 9.33056 14.5107C9.54811 13.5507 9.97937 12.6521 10.5922 11.8821C11.205 11.112 11.9836 10.4902 12.87 10.063C13.7564 9.6359 14.7277 9.41439 15.7115 9.41504Z" stroke="#B5B5B5" stroke-width="1.5" stroke-linecap="round" stroke-linejoin="round"/>
<path d="M16.65 5.58219C15.614 4.26305 14.1926 3.29998 12.5839 2.82707C10.9751 2.35417 9.25903 2.39496 7.67454 2.94376C6.09006 3.49257 4.71603 4.52208 3.74374 5.88896C2.77146 7.25583 2.24933 8.89205 2.25004 10.5698C2.24527 12.1646 2.7167 13.7245 3.60388 15.0494L2.25004 18.6515L5.51156 18.0665" stroke="#B5B5B5" stroke-width="1.5" stroke-linecap="round" stroke-linejoin="round"/>
</svg>
