<svg width="47" height="33" viewBox="0 0 47 33" fill="none" xmlns="http://www.w3.org/2000/svg">
<g clip-path="url(#clip0_504_206)">
<rect x="0.5" y="0.5" width="46" height="32" rx="8" fill="#E7F2E6"/>
<path d="M26.9615 13.415C28.6956 13.415 30.3587 14.1043 31.5848 15.3313C32.811 16.5582 33.4999 18.2223 33.4999 19.9574C33.5041 21.2453 33.1236 22.5049 32.4076 23.575L33.4999 26.4998L29.823 25.8379C28.9387 26.2693 27.9686 26.4956 26.9847 26.4998C26.001 26.5039 25.0289 26.2858 24.141 25.8619C23.2531 25.4379 22.4723 24.8188 21.8567 24.0509C21.2412 23.2831 20.8067 22.3861 20.5857 21.4268C20.3648 20.4676 20.363 19.4708 20.5806 18.5107C20.7981 17.5507 21.2294 16.6521 21.8422 15.8821C22.455 15.112 23.2336 14.4902 24.12 14.063C25.0064 13.6359 25.9777 13.4144 26.9615 13.415Z" stroke="#0A8100" stroke-width="1.5" stroke-linecap="round" stroke-linejoin="round"/>
<path d="M27.9 9.58219C26.864 8.26305 25.4426 7.29998 23.8339 6.82707C22.2251 6.35417 20.509 6.39496 18.9245 6.94376C17.3401 7.49257 15.966 8.52208 14.9937 9.88896C14.0215 11.2558 13.4993 12.892 13.5 14.5698C13.4953 16.1646 13.9667 17.7245 14.8539 19.0494L13.5 22.6515L16.7616 22.0665" stroke="#0A8100" stroke-width="1.5" stroke-linecap="round" stroke-linejoin="round"/>
</g>
<defs>
<clipPath id="clip0_504_206">
<rect x="0.5" y="0.5" width="46" height="32" rx="8" fill="white"/>
</clipPath>
</defs>
</svg>
