<svg width="24" height="24" viewBox="0 0 24 24" fill="none" xmlns="http://www.w3.org/2000/svg">
<path d="M15.4616 8.91525C17.1957 8.91525 18.8588 9.60454 20.085 10.8315C21.3111 12.0584 22 13.7225 22 15.4576C22.0042 16.7455 21.6237 18.0051 20.9077 19.0752L22 22L18.3231 21.3381C17.4388 21.7696 16.4687 21.9958 15.4849 22C14.5011 22.0042 13.529 21.786 12.6411 21.3621C11.7532 20.9381 10.9724 20.319 10.3568 19.5511C9.74128 18.7833 9.30682 17.8863 9.08587 16.927C8.86491 15.9678 8.86313 14.971 9.08068 14.0109C9.29823 13.0509 9.7295 12.1524 10.3423 11.3823C10.9552 10.6122 11.7338 9.9904 12.6201 9.56325C13.5065 9.1361 14.4778 8.9146 15.4616 8.91525Z" stroke="#333333" stroke-width="1.5" stroke-linecap="round" stroke-linejoin="round"/>
<path d="M16.4 5.08222C15.364 3.76307 13.9426 2.80001 12.3339 2.3271C10.7251 1.85419 9.00903 1.89498 7.42454 2.44379C5.84006 2.9926 4.46603 4.02211 3.49374 5.38898C2.52146 6.75585 1.99933 8.39207 2.00004 10.0698C1.99527 11.6646 2.4667 13.2245 3.35388 14.5494L2.00004 18.1515L5.26156 17.5665" stroke="#333333" stroke-width="1.5" stroke-linecap="round" stroke-linejoin="round"/>
</svg>
