<svg width="24" height="24" viewBox="0 0 24 24" fill="none" xmlns="http://www.w3.org/2000/svg">
<path d="M22.8598 7.14278C22.6906 6.99527 22.4813 6.90136 22.2587 6.87298C22.036 6.8446 21.8099 6.88304 21.6091 6.98341L16.9019 9.32716L12.9719 2.79935C12.8709 2.63184 12.7283 2.49328 12.558 2.39709C12.3877 2.30091 12.1954 2.25037 11.9998 2.25037C11.8041 2.25037 11.6118 2.30091 11.4415 2.39709C11.2712 2.49328 11.1286 2.63184 11.0276 2.79935L7.09756 9.32997L2.39225 6.98622C2.19195 6.88674 1.96672 6.84864 1.74484 6.8767C1.52296 6.90475 1.31431 6.99772 1.14507 7.14392C0.975832 7.29013 0.853545 7.48307 0.793556 7.69852C0.733568 7.91397 0.73855 8.14234 0.807877 8.35497L4.27663 18.9825C4.3115 19.0892 4.36991 19.1868 4.44755 19.268C4.52518 19.3491 4.62005 19.4118 4.72516 19.4514C4.83027 19.491 4.94292 19.5065 5.05482 19.4967C5.16671 19.487 5.27498 19.4522 5.37163 19.395C5.39506 19.3809 7.79225 18 11.9998 18C16.2073 18 18.6044 19.3809 18.626 19.394C18.7227 19.4518 18.8311 19.4871 18.9433 19.4972C19.0555 19.5073 19.1685 19.492 19.274 19.4525C19.3794 19.4129 19.4746 19.3502 19.5525 19.2688C19.6304 19.1874 19.6889 19.0896 19.7238 18.9825L23.1926 8.35778C23.2639 8.14509 23.2703 7.916 23.2111 7.69964C23.1518 7.48328 23.0295 7.28944 22.8598 7.14278ZM18.5623 17.7028C17.4373 17.2256 15.1948 16.5 11.9998 16.5C8.80475 16.5 6.56225 17.2256 5.43725 17.7028L2.50381 8.71872L6.72913 10.8253C6.98488 10.9514 7.2786 10.9772 7.55242 10.8975C7.82623 10.8179 8.0603 10.6386 8.2085 10.395L11.9998 4.0931L15.791 10.3931C15.9393 10.6363 16.1732 10.8153 16.4468 10.8949C16.7203 10.9746 17.0137 10.949 17.2694 10.8234L21.4957 8.71872L18.5623 17.7028ZM16.4876 14.7028C16.457 14.8763 16.3662 15.0335 16.2313 15.1468C16.0964 15.2601 15.9259 15.3223 15.7498 15.3225C15.7058 15.3224 15.6619 15.3186 15.6185 15.3112C13.2229 14.9 10.7747 14.9 8.37913 15.3112C8.1832 15.3458 7.98157 15.3011 7.81858 15.187C7.6556 15.0729 7.54463 14.8987 7.51007 14.7028C7.4755 14.5069 7.52019 14.3052 7.63429 14.1422C7.7484 13.9793 7.92257 13.8683 8.1185 13.8337C10.6866 13.3925 13.3111 13.3925 15.8791 13.8337C16.0747 13.8681 16.2486 13.9785 16.3629 14.1409C16.4771 14.3033 16.5223 14.5043 16.4885 14.7L16.4876 14.7028Z" fill="#111111"/>
</svg>
