<svg width="30" height="30" viewBox="0 0 30 30" fill="none" xmlns="http://www.w3.org/2000/svg">
<circle cx="15" cy="15" r="14.5" fill="#E7F2E6" stroke="#0A8100"/>
<rect width="15" height="15" transform="translate(7.5 7.5)" fill="#E7F2E6"/>
<path d="M9.375 13.125C9.375 12.4346 9.93464 11.875 10.625 11.875H11.206C11.624 11.875 12.0143 11.6661 12.2461 11.3184L12.7539 10.5566C12.9857 10.2089 13.376 10 13.794 10H16.206C16.624 10 17.0143 10.2089 17.2461 10.5566L17.7539 11.3184C17.9857 11.6661 18.376 11.875 18.794 11.875H19.375C20.0654 11.875 20.625 12.4346 20.625 13.125V18.75C20.625 19.4404 20.0654 20 19.375 20H10.625C9.93464 20 9.375 19.4404 9.375 18.75V13.125Z" stroke="#0A8100" stroke-linecap="round" stroke-linejoin="round"/>
<path d="M16.875 15.625C16.875 16.6605 16.0355 17.5 15 17.5C13.9645 17.5 13.125 16.6605 13.125 15.625C13.125 14.5895 13.9645 13.75 15 13.75C16.0355 13.75 16.875 14.5895 16.875 15.625Z" stroke="#0A8100" stroke-linecap="round" stroke-linejoin="round"/>
</svg>
