<svg width="24" height="24" viewBox="0 0 24 24" fill="none" xmlns="http://www.w3.org/2000/svg">
<path d="M3.70711 2.29289C3.31658 1.90237 2.68342 1.90237 2.29289 2.29289C1.90237 2.68342 1.90237 3.31658 2.29289 3.70711L3.70711 2.29289ZM20.2929 21.7071C20.6834 22.0976 21.3166 22.0976 21.7071 21.7071C22.0976 21.3166 22.0976 20.6834 21.7071 20.2929L20.2929 21.7071ZM2.45825 12L1.5042 11.7003C1.44294 11.8954 1.44293 12.1045 1.5042 12.2996L2.45825 12ZM21.5426 12L22.4967 12.2997C22.558 12.1046 22.558 11.8955 22.4967 11.7004L21.5426 12ZM14.0612 19.8071C14.6038 19.7042 14.9603 19.1809 14.8574 18.6383C14.7545 18.0957 14.2312 17.7392 13.6886 17.8421L14.0612 19.8071ZM4.81884 9.57463C5.15211 9.13424 5.06528 8.50706 4.62488 8.17378C4.18449 7.8405 3.55731 7.92734 3.22403 8.36773L4.81884 9.57463ZM9.87868 9.87868L9.17157 10.5858L9.87868 9.87868ZM14.1213 14.1213L13.4142 14.8284L14.1213 14.1213ZM12 10C13.1046 10 14 10.8954 14 12H16C16 9.79086 14.2091 8 12 8V10ZM12.0004 6C16.0288 6 19.4415 8.64737 20.5886 12.2997L22.4967 11.7004C21.0953 7.23846 16.9274 4 12.0004 4V6ZM12.0005 18C7.97208 18 4.55941 15.3526 3.4123 11.7003L1.5042 12.2996C2.9056 16.7615 7.07353 20 12.0005 20V18ZM13.6886 17.8421C13.1425 17.9457 12.5783 18 12.0005 18V20C12.7039 20 13.3929 19.9338 14.0612 19.8071L13.6886 17.8421ZM3.4123 12.2996C3.72418 11.3066 4.20391 10.3872 4.81884 9.57463L3.22403 8.36773C2.4731 9.36002 1.88612 10.4844 1.5042 11.7003L3.4123 12.2996ZM10.5858 10.5858C10.9488 10.2228 11.4474 10 12 10V8C10.8957 8 9.89434 8.44881 9.17157 9.17157L10.5858 10.5858ZM9.17157 10.5858L13.4142 14.8284L14.8284 13.4142L10.5858 9.17157L9.17157 10.5858ZM14 12C14 12.5526 13.7772 13.0512 13.4142 13.4142L14.8284 14.8284C15.5512 14.1057 16 13.1043 16 12H14ZM2.29289 3.70711L5.88205 7.29627L7.29627 5.88205L3.70711 2.29289L2.29289 3.70711ZM5.88205 7.29627L9.17157 10.5858L10.5858 9.17157L7.29627 5.88205L5.88205 7.29627ZM7.13101 7.42963C8.53416 6.52502 10.2045 6 12.0004 6V4C9.80867 4 7.7638 4.64206 6.04731 5.74869L7.13101 7.42963ZM14.8284 13.4142L7.29627 5.88205L5.88205 7.29627L13.4142 14.8284L14.8284 13.4142ZM13.4142 14.8284L16.7041 18.1183L18.1183 16.7041L14.8284 13.4142L13.4142 14.8284ZM16.7041 18.1183L20.2929 21.7071L21.7071 20.2929L18.1183 16.7041L16.7041 18.1183ZM20.5886 11.7004C19.9529 13.7242 18.6199 15.4423 16.8694 16.5707L17.953 18.2517C20.0892 16.8747 21.7185 14.7772 22.4967 12.2997L20.5886 11.7004Z" fill="#111827"/>
</svg>
