<svg width="24" height="24" viewBox="0 0 24 24" fill="none" xmlns="http://www.w3.org/2000/svg">
<path d="M2.45825 12L1.5042 11.7003C1.44294 11.8954 1.44293 12.1045 1.5042 12.2996L2.45825 12ZM21.5426 12L22.4967 12.2997C22.558 12.1046 22.558 11.8955 22.4967 11.7004L21.5426 12ZM14 12C14 13.1046 13.1046 14 12 14V16C14.2091 16 16 14.2091 16 12H14ZM12 14C10.8954 14 10 13.1046 10 12H8C8 14.2091 9.79086 16 12 16V14ZM10 12C10 10.8954 10.8954 10 12 10V8C9.79086 8 8 9.79086 8 12H10ZM12 10C13.1046 10 14 10.8954 14 12H16C16 9.79086 14.2091 8 12 8V10ZM3.4123 12.2996C4.55943 8.64733 7.97208 6 12.0004 6V4C7.07354 4 2.90562 7.23842 1.5042 11.7003L3.4123 12.2996ZM12.0004 6C16.0288 6 19.4415 8.64737 20.5886 12.2997L22.4967 11.7004C21.0953 7.23846 16.9274 4 12.0004 4V6ZM20.5886 11.7004C19.4415 15.3527 16.0288 18 12.0005 18V20C16.9274 20 21.0953 16.7616 22.4967 12.2997L20.5886 11.7004ZM12.0005 18C7.97208 18 4.55941 15.3526 3.4123 11.7003L1.5042 12.2996C2.9056 16.7615 7.07353 20 12.0005 20V18Z" fill="#111827"/>
</svg>
