<svg width="24" height="24" viewBox="0 0 24 24" fill="none" xmlns="http://www.w3.org/2000/svg">
<path d="M7.29289 13.2929L6.58579 14H6.58579L7.29289 13.2929ZM9.70711 15.7071L9 16.4142L9 16.4142L9.70711 15.7071ZM16.7071 13.2929L17.4142 14L16.7071 13.2929ZM6 5H18V3H6V5ZM18 19H6V21H18V19ZM6 19C5.44772 19 5 18.5523 5 18H3C3 19.6569 4.34315 21 6 21V19ZM19 18C19 18.5523 18.5523 19 18 19V21C19.6569 21 21 19.6569 21 18H19ZM18 5C18.5523 5 19 5.44772 19 6H21C21 4.34315 19.6569 3 18 3V5ZM6 3C4.34315 3 3 4.34315 3 6H5C5 5.44772 5.44772 5 6 5V3ZM6.58579 14L9 16.4142L10.4142 15L8 12.5858L6.58579 14ZM10.4142 17H13.5858V15H10.4142V17ZM15 16.4142L17.4142 14L16 12.5858L13.5858 15L15 16.4142ZM17.4142 14V12C16.8838 12 16.3751 12.2107 16 12.5858L17.4142 14ZM13.5858 17C14.1162 17 14.6249 16.7893 15 16.4142L13.5858 15V17ZM9 16.4142C9.37507 16.7893 9.88378 17 10.4142 17V15L10.4142 15L9 16.4142ZM6.58579 14H6.58579L8 12.5858C7.62493 12.2107 7.11622 12 6.58579 12V14ZM19 6V13H21V6H19ZM19 13V18H21V13H19ZM17.4142 14H20V12H17.4142V14ZM5 18V13H3V18H5ZM5 13V6H3V13H5ZM6.58579 12H4V14H6.58579V12Z" fill="#111827"/>
</svg>
