<svg width="24" height="24" viewBox="0 0 24 24" fill="none" xmlns="http://www.w3.org/2000/svg">
<path d="M12 12H13C13 11.4477 12.5523 11 12 11V12ZM12 16H11C11 16.5523 11.4477 17 12 17V16ZM13 17C13.5523 17 14 16.5523 14 16C14 15.4477 13.5523 15 13 15V17ZM11 11C10.4477 11 10 11.4477 10 12C10 12.5523 10.4477 13 11 13V11ZM12 7C11.4477 7 11 7.44772 11 8C11 8.55228 11.4477 9 12 9V7ZM12.01 9C12.5623 9 13.01 8.55228 13.01 8C13.01 7.44772 12.5623 7 12.01 7V9ZM11 12V16H13V12H11ZM12 17H13V15H12V17ZM12 11H11V13H12V11ZM20 12C20 16.4183 16.4183 20 12 20V22C17.5228 22 22 17.5228 22 12H20ZM12 20C7.58172 20 4 16.4183 4 12H2C2 17.5228 6.47715 22 12 22V20ZM4 12C4 7.58172 7.58172 4 12 4V2C6.47715 2 2 6.47715 2 12H4ZM12 4C16.4183 4 20 7.58172 20 12H22C22 6.47715 17.5228 2 12 2V4ZM12 9H12.01V7H12V9Z" fill="#111827"/>
</svg>
