<svg width="24" height="24" viewBox="0 0 24 24" fill="none" xmlns="http://www.w3.org/2000/svg">
<path d="M16.2929 15.2929C15.9024 15.6834 15.9024 16.3166 16.2929 16.7071C16.6834 17.0976 17.3166 17.0976 17.7071 16.7071L16.2929 15.2929ZM21 12L21.7071 12.7071C22.0976 12.3166 22.0976 11.6834 21.7071 11.2929L21 12ZM17.7071 7.29289C17.3166 6.90237 16.6834 6.90237 16.2929 7.29289C15.9024 7.68342 15.9024 8.31658 16.2929 8.70711L17.7071 7.29289ZM7 11C6.44772 11 6 11.4477 6 12C6 12.5523 6.44772 13 7 13V11ZM14 16C14 15.4477 13.5523 15 13 15C12.4477 15 12 15.4477 12 16H14ZM12 8C12 8.55228 12.4477 9 13 9C13.5523 9 14 8.55228 14 8H12ZM4 17V7H2V17H4ZM2 17C2 19.2091 3.79086 21 6 21V19C4.89543 19 4 18.1046 4 17H2ZM4 7C4 5.89543 4.89543 5 6 5V3C3.79086 3 2 4.79086 2 7H4ZM17.7071 16.7071L21.7071 12.7071L20.2929 11.2929L16.2929 15.2929L17.7071 16.7071ZM21.7071 11.2929L17.7071 7.29289L16.2929 8.70711L20.2929 12.7071L21.7071 11.2929ZM21 11L7 11V13L21 13V11ZM6 21H10V19H6V21ZM14 17V16H12V17H14ZM6 5H10V3H6V5ZM12 7V8H14V7H12ZM10 5C11.1046 5 12 5.89543 12 7H14C14 4.79086 12.2091 3 10 3V5ZM10 21C12.2091 21 14 19.2091 14 17H12C12 18.1046 11.1046 19 10 19V21Z" fill="#111827"/>
</svg>
