<svg width="24" height="24" viewBox="0 0 24 24" fill="none" xmlns="http://www.w3.org/2000/svg">
<path d="M3.5547 7.16795C3.09517 6.8616 2.4743 6.98577 2.16795 7.4453C1.8616 7.90483 1.98577 8.5257 2.4453 8.83205L3.5547 7.16795ZM10.8906 13.2604L10.3359 14.0925H10.3359L10.8906 13.2604ZM13.1094 13.2604L12.5547 12.4283L13.1094 13.2604ZM21.5547 8.83205C22.0142 8.5257 22.1384 7.90483 21.8321 7.4453C21.5257 6.98577 20.9048 6.8616 20.4453 7.16795L21.5547 8.83205ZM5 6H19V4H5V6ZM20 7V17H22V7H20ZM19 18H5V20H19V18ZM4 17V7H2V17H4ZM5 18C4.44772 18 4 17.5523 4 17H2C2 18.6569 3.34315 20 5 20V18ZM20 17C20 17.5523 19.5523 18 19 18V20C20.6569 20 22 18.6569 22 17H20ZM19 6C19.5523 6 20 6.44772 20 7H22C22 5.34315 20.6569 4 19 4V6ZM5 4C3.34315 4 2 5.34315 2 7H4C4 6.44772 4.44772 6 5 6V4ZM2.4453 8.83205L10.3359 14.0925L11.4453 12.4283L3.5547 7.16795L2.4453 8.83205ZM13.6641 14.0925L21.5547 8.83205L20.4453 7.16795L12.5547 12.4283L13.6641 14.0925ZM10.3359 14.0925C11.3436 14.7642 12.6564 14.7642 13.6641 14.0925L12.5547 12.4283C12.2188 12.6523 11.7812 12.6523 11.4453 12.4283L10.3359 14.0925Z" fill="#111827"/>
</svg>
