<svg width="36" height="36" viewBox="0 0 36 36" fill="none" xmlns="http://www.w3.org/2000/svg">
<circle cx="18" cy="18" r="18" fill="#E7F2E6"/>
<path d="M26 23V24C26.4045 24 26.7691 23.7564 26.9239 23.3827C27.0787 23.009 26.9931 22.5789 26.7071 22.2929L26 23ZM10 23L9.29289 22.2929C9.0069 22.5789 8.92134 23.009 9.07612 23.3827C9.2309 23.7564 9.59554 24 10 24V23ZM11.4049 21.5951L12.112 22.3022H12.112L11.4049 21.5951ZM16 11.3414L16.3332 12.2843C16.7328 12.143 17 11.7652 17 11.3414H16ZM20 11.3414H19C19 11.7652 19.2672 12.143 19.6668 12.2843L20 11.3414ZM10.7071 23.7071L12.112 22.3022L10.6978 20.888L9.29289 22.2929L10.7071 23.7071ZM13 20.1585V17H11V20.1585H13ZM23 17V20.1585H25V17H23ZM23.888 22.3022L25.2929 23.7071L26.7071 22.2929L25.3022 20.888L23.888 22.3022ZM12.112 22.3022C12.6806 21.7336 13 20.9625 13 20.1585H11C11 20.4321 10.8913 20.6945 10.6978 20.888L12.112 22.3022ZM23 20.1585C23 20.9625 23.3194 21.7336 23.888 22.3022L25.3022 20.888C25.1087 20.6945 25 20.4321 25 20.1585H23ZM15.6668 10.3986C12.9493 11.3591 11 13.9506 11 17H13C13 14.8245 14.3899 12.9711 16.3332 12.2843L15.6668 10.3986ZM19.6668 12.2843C21.6101 12.9711 23 14.8245 23 17H25C25 13.9506 23.0507 11.3591 20.3332 10.3986L19.6668 12.2843ZM21 11.3414V11H19V11.3414H21ZM15 11V11.3414H17V11H15ZM18 8C16.3431 8 15 9.34315 15 11H17C17 10.4477 17.4477 10 18 10V8ZM21 11C21 9.34315 19.6569 8 18 8V10C18.5523 10 19 10.4477 19 11H21ZM20 24C20 25.1046 19.1046 26 18 26V28C20.2091 28 22 26.2091 22 24H20ZM18 26C16.8954 26 16 25.1046 16 24H14C14 26.2091 15.7909 28 18 28V26ZM26 22H21V24H26V22ZM22 24V23H20V24H22ZM21 22H15V24H21V22ZM15 22H10V24H15V22ZM16 24V23H14V24H16Z" fill="#0A8100"/>
<circle cx="32" cy="6" r="4" fill="#EC1C24"/>
</svg>
