<svg width="24" height="24" viewBox="0 0 24 24" fill="none" xmlns="http://www.w3.org/2000/svg">
<path d="M11 6C11.5523 6 12 5.55229 12 5C12 4.44772 11.5523 4 11 4V6ZM20 13C20 12.4477 19.5523 12 19 12C18.4477 12 18 12.4477 18 13H20ZM17.5858 3.58579L18.2929 4.29289L17.5858 3.58579ZM20.4142 6.41421L19.7071 5.70711L20.4142 6.41421ZM9 12.1716L8.29289 11.4645C8.10536 11.652 8 11.9064 8 12.1716H9ZM9 15H8C8 15.5523 8.44772 16 9 16V15ZM11.8284 15V16C12.0936 16 12.348 15.8946 12.5355 15.7071L11.8284 15ZM17 19H6V21H17V19ZM5 18V7H3V18H5ZM6 6H11V4H6V6ZM18 13V18H20V13H18ZM6 19C5.44772 19 5 18.5523 5 18H3C3 19.6569 4.34315 21 6 21V19ZM17 21C18.6569 21 20 19.6569 20 18H18C18 18.5523 17.5523 19 17 19V21ZM5 7C5 6.44772 5.44772 6 6 6V4C4.34315 4 3 5.34315 3 7H5ZM18.2929 4.29289C18.6834 3.90237 19.3166 3.90237 19.7071 4.29289L21.1213 2.87868C19.9497 1.70711 18.0503 1.70711 16.8787 2.87868L18.2929 4.29289ZM19.7071 4.29289C20.0976 4.68342 20.0976 5.31658 19.7071 5.70711L21.1213 7.12132C22.2929 5.94975 22.2929 4.05025 21.1213 2.87868L19.7071 4.29289ZM16.8787 2.87868L8.29289 11.4645L9.70711 12.8787L18.2929 4.29289L16.8787 2.87868ZM8 12.1716L8 15H10L10 12.1716H8ZM19.7071 5.70711L11.1213 14.2929L12.5355 15.7071L21.1213 7.12132L19.7071 5.70711ZM11.8284 14H9V16H11.8284V14Z" fill="#111827"/>
</svg>
