<svg width="47" height="33" viewBox="0 0 47 33" fill="none" xmlns="http://www.w3.org/2000/svg">
<g clip-path="url(#clip0_2015_503)">
<rect x="0.75" y="0.5" width="46" height="32" rx="8" fill="#E7F2E6"/>
<path d="M16.75 25.5H15.75C15.75 26.0523 16.1977 26.5 16.75 26.5V25.5ZM30.75 25.5V26.5C31.3023 26.5 31.75 26.0523 31.75 25.5H30.75ZM26.75 11.5C26.75 13.1569 25.4069 14.5 23.75 14.5V16.5C26.5114 16.5 28.75 14.2614 28.75 11.5H26.75ZM23.75 14.5C22.0931 14.5 20.75 13.1569 20.75 11.5H18.75C18.75 14.2614 20.9886 16.5 23.75 16.5V14.5ZM20.75 11.5C20.75 9.84315 22.0931 8.5 23.75 8.5V6.5C20.9886 6.5 18.75 8.73858 18.75 11.5H20.75ZM23.75 8.5C25.4069 8.5 26.75 9.84315 26.75 11.5H28.75C28.75 8.73858 26.5114 6.5 23.75 6.5V8.5ZM17.75 25.5C17.75 22.1863 20.4363 19.5 23.75 19.5V17.5C19.3317 17.5 15.75 21.0817 15.75 25.5H17.75ZM23.75 19.5C27.0637 19.5 29.75 22.1863 29.75 25.5H31.75C31.75 21.0817 28.1683 17.5 23.75 17.5V19.5ZM16.75 26.5H30.75V24.5H16.75V26.5Z" fill="#0A8100"/>
</g>
<defs>
<clipPath id="clip0_2015_503">
<rect x="0.75" y="0.5" width="46" height="32" rx="8" fill="white"/>
</clipPath>
</defs>
</svg>
