<svg width="65" height="33" viewBox="0 0 65 33" fill="none" xmlns="http://www.w3.org/2000/svg">
    <path d="M25.5 25.5H24.5C24.5 26.0523 24.9477 26.5 25.5 26.5V25.5ZM39.5 25.5V26.5C40.0523 26.5 40.5 26.0523 40.5 25.5H39.5ZM35.5 11.5C35.5 13.1569 34.1569 14.5 32.5 14.5V16.5C35.2614 16.5 37.5 14.2614 37.5 11.5H35.5ZM32.5 14.5C30.8431 14.5 29.5 13.1569 29.5 11.5H27.5C27.5 14.2614 29.7386 16.5 32.5 16.5V14.5ZM29.5 11.5C29.5 9.84315 30.8431 8.5 32.5 8.5V6.5C29.7386 6.5 27.5 8.73858 27.5 11.5H29.5ZM32.5 8.5C34.1569 8.5 35.5 9.84315 35.5 11.5H37.5C37.5 8.73858 35.2614 6.5 32.5 6.5V8.5ZM26.5 25.5C26.5 22.1863 29.1863 19.5 32.5 19.5V17.5C28.0817 17.5 24.5 21.0817 24.5 25.5H26.5ZM32.5 19.5C35.8137 19.5 38.5 22.1863 38.5 25.5H40.5C40.5 21.0817 36.9183 17.5 32.5 17.5V19.5ZM25.5 26.5H39.5V24.5H25.5V26.5Z" fill="#B5B5B5"/>
</svg>
