<svg width="24" height="24" viewBox="0 0 24 24" fill="none" xmlns="http://www.w3.org/2000/svg">
<path d="M20.6179 5.98434L21.586 5.73376C21.467 5.27418 21.0414 4.96157 20.5672 4.98562L20.6179 5.98434ZM11.9999 2.94434L12.6669 2.19921C12.2872 1.85938 11.7127 1.85938 11.333 2.1992L11.9999 2.94434ZM3.38213 5.98422L3.43278 4.9855C2.95867 4.96145 2.53299 5.27406 2.41403 5.73363L3.38213 5.98422ZM12 20.622L11.7507 21.5904C11.9143 21.6325 12.0858 21.6325 12.2493 21.5904L12 20.622ZM9.70711 11.2929C9.31658 10.9024 8.68342 10.9024 8.29289 11.2929C7.90237 11.6834 7.90237 12.3166 8.29289 12.7071L9.70711 11.2929ZM11 14L10.2929 14.7071C10.6834 15.0976 11.3166 15.0976 11.7071 14.7071L11 14ZM15.7071 10.7071C16.0976 10.3166 16.0976 9.68343 15.7071 9.2929C15.3166 8.90238 14.6834 8.90238 14.2929 9.2929L15.7071 10.7071ZM20.5672 4.98562C20.3794 4.99515 20.1903 4.99997 20 4.99997V6.99997C20.2241 6.99997 20.447 6.99429 20.6686 6.98305L20.5672 4.98562ZM20 4.99997C17.182 4.99997 14.6136 3.94165 12.6669 2.19921L11.333 3.68947C13.6323 5.74742 16.6711 6.99997 20 6.99997V4.99997ZM11.333 2.1992C9.38626 3.94157 6.81791 4.99985 4 4.99985V6.99985C7.32886 6.99985 10.3676 5.74735 12.6668 3.68948L11.333 2.1992ZM4 4.99985C3.80968 4.99985 3.62057 4.99503 3.43278 4.9855L3.33147 6.98293C3.55298 6.99417 3.77587 6.99985 4 6.99985V4.99985ZM2.41403 5.73363C2.14361 6.77839 2 7.87317 2 9.00001H4C4 8.04368 4.1218 7.11727 4.35022 6.2348L2.41403 5.73363ZM2 9.00001C2 15.0589 6.14397 20.1473 11.7507 21.5904L12.2493 19.6535C7.50467 18.4323 4 14.1242 4 9.00001H2ZM12.2493 21.5904C17.856 20.1473 22 15.0589 22 9.00001H20C20 14.1242 16.4953 18.4323 11.7507 19.6535L12.2493 21.5904ZM22 9.00001C22 7.87321 21.8564 6.77849 21.586 5.73376L19.6498 6.23491C19.8782 7.11734 20 8.04372 20 9.00001H22ZM8.29289 12.7071L10.2929 14.7071L11.7071 13.2929L9.70711 11.2929L8.29289 12.7071ZM11.7071 14.7071L15.7071 10.7071L14.2929 9.2929L10.2929 13.2929L11.7071 14.7071Z" fill="#111827"/>
</svg>
