<svg width="24" height="24" viewBox="0 0 24 24" fill="none" xmlns="http://www.w3.org/2000/svg">
<path d="M5 21H4C4 21.5523 4.44772 22 5 22V21ZM19 21V22C19.5523 22 20 21.5523 20 21H19ZM15 7C15 8.65685 13.6569 10 12 10V12C14.7614 12 17 9.76142 17 7H15ZM12 10C10.3431 10 9 8.65685 9 7H7C7 9.76142 9.23858 12 12 12V10ZM9 7C9 5.34315 10.3431 4 12 4V2C9.23858 2 7 4.23858 7 7H9ZM12 4C13.6569 4 15 5.34315 15 7H17C17 4.23858 14.7614 2 12 2V4ZM6 21C6 17.6863 8.68629 15 12 15V13C7.58172 13 4 16.5817 4 21H6ZM12 15C15.3137 15 18 17.6863 18 21H20C20 16.5817 16.4183 13 12 13V15ZM5 22H19V20H5V22Z" fill="#111827"/>
</svg>
